<svg id="Layer_1" data-name="Layer 1" xmlns="http://www.w3.org/2000/svg" xmlns:xlink="http://www.w3.org/1999/xlink" viewBox="0 0 1713.34 290.66"><defs><style>.cls-1{fill:#222;}.cls-2{fill:url(#linear-gradient);}</style><linearGradient id="linear-gradient" x1="16.06" y1="49.54" x2="202.89" y2="236.38" gradientUnits="userSpaceOnUse"><stop offset="0.04" stop-color="#9e07ae"/><stop offset="0.3" stop-color="#e5202f"/><stop offset="0.52" stop-color="#f06424"/><stop offset="0.84" stop-color="#faa51a"/></linearGradient></defs><polygon class="cls-1" points="1685.81 79.74 1648.67 147.73 1611.9 79.74 1584.74 79.74 1584.74 210.93 1612.83 210.93 1612.83 137.02 1638.88 183.21 1658.28 183.21 1684.52 136.28 1684.52 210.93 1713.34 210.93 1713.34 79.74 1685.81 79.74"/><path class="cls-1" d="M1546,162.05a12.71,12.71,0,0,0-1.3-1.94,34,34,0,0,0,10-6.46,33.54,33.54,0,0,0,6.65-8.87,39.33,39.33,0,0,0,3.7-10.72,62,62,0,0,0,1.11-11.83,49.05,49.05,0,0,0-3-17.83A37.52,37.52,0,0,0,1554.38,91a36.58,36.58,0,0,0-13.76-8.41,54.22,54.22,0,0,0-18.11-2.86h-58.76V210.93h30.12V164.36h7.58a42.16,42.16,0,0,1,6.65.46,12.76,12.76,0,0,1,4.8,1.76,14,14,0,0,1,3.61,3.33,33.64,33.64,0,0,1,3.23,5.35l17.18,35.67h34.93l-23.29-44.35C1547.46,164.61,1546.59,163.1,1546,162.05Zm-15.06-28.54q-4,3.87-11.36,3.88h-25.69V107.08h25.69q7.38,0,11.36,4t4,11.17Q1534.89,129.63,1530.92,133.51Z"/><path class="cls-1" d="M1432.92,90.08Q1418.69,77,1392.45,77q-26.06,0-40.28,13.12t-14.23,36.59V164q0,23.47,14.23,36.59t40.28,13.12q26.23,0,40.47-13.12T1447.15,164V126.67Q1447.15,103.21,1432.92,90.08ZM1417,164.55q0,21.62-24.58,21.62-11.82,0-18.11-5.45t-6.28-16.17V126.11q0-10.71,6.28-16.16t18.11-5.45q24.57,0,24.58,21.61Z"/><polygon class="cls-1" points="1237.17 210.93 1267.29 210.93 1267.29 160.85 1308.29 160.85 1317.36 133.51 1317.36 133.5 1267.29 133.5 1267.29 107.08 1326.6 107.08 1326.6 79.74 1237.17 79.74 1237.17 210.93"/><path class="cls-1" d="M1201,166.58q-1.66-3-2.58-4.53a12.71,12.71,0,0,0-1.3-1.94,34.1,34.1,0,0,0,10-6.46,33.54,33.54,0,0,0,6.65-8.87,39.33,39.33,0,0,0,3.7-10.72,62,62,0,0,0,1.11-11.83,49.05,49.05,0,0,0-3-17.83A37.65,37.65,0,0,0,1206.81,91a36.66,36.66,0,0,0-13.76-8.41,54.22,54.22,0,0,0-18.11-2.86h-58.76V210.93h30.12V164.36h7.58a42.16,42.16,0,0,1,6.65.46,12.83,12.83,0,0,1,4.8,1.76,14,14,0,0,1,3.61,3.33,33.64,33.64,0,0,1,3.23,5.35l17.18,35.67h34.93Zm-17.64-33.07q-4,3.87-11.37,3.88H1146.3V107.08H1172q7.39,0,11.37,4t4,11.17Q1187.32,129.63,1183.35,133.51Z"/><polygon class="cls-1" points="1040.55 158.26 1081.15 158.26 1090.23 130.92 1040.55 130.92 1040.55 107.08 1099.87 107.08 1099.87 79.74 1010.44 79.74 1010.44 210.93 1101.71 210.93 1101.71 183.39 1040.55 183.39 1040.55 158.26"/><path class="cls-1" d="M984.18,91.56A40.05,40.05,0,0,0,970,82.78a54.51,54.51,0,0,0-18.84-3H894V210.93h30.12V107.08H948q8.31,0,12.74,4.53t4.44,12.47q0,8-4.44,12.29T948,140.71h-7.13l-9.15,27.53h19.42a55.13,55.13,0,0,0,18.94-3.05,39.41,39.41,0,0,0,14.22-8.68,37.84,37.84,0,0,0,9-13.86,51.8,51.8,0,0,0,3.14-18.57,51.84,51.84,0,0,0-3.14-18.57A38.13,38.13,0,0,0,984.18,91.56Z"/><path class="cls-1" d="M796,210.74a50.77,50.77,0,0,0,17.28-8.5,37.42,37.42,0,0,0,10.9-13.4,39.57,39.57,0,0,0,3.79-17.46q0-11.44-3.88-18.84a31.65,31.65,0,0,0-10.53-11.83,49.49,49.49,0,0,0-15.34-6.65,138.25,138.25,0,0,0-18.11-3.33c-2.21-.24-4.22-.49-6-.74s-3.42-.49-4.9-.74a36.5,36.5,0,0,1-4.16-.92c-1.29-.37-2.67-.8-4.15-1.29q-8.5-3-8.5-10,0-6.65,5.08-9.7t16.72-3q15.71,0,21.8,12.2l2.41,4.8,27.71-12-2.4-5.17q-6.47-13.86-18.11-20.51T774.17,77A75.29,75.29,0,0,0,751.81,80a49.42,49.42,0,0,0-16.53,8.5,36.16,36.16,0,0,0-10.26,13,39.52,39.52,0,0,0-3.51,16.81q.74,12.39,5,19.77a31.65,31.65,0,0,0,11.09,11.55,47.77,47.77,0,0,0,15.89,5.92q9,1.75,19.21,3,12.19,1.31,18.57,4.16t6.38,9.15q0,14.59-24.58,14.6-17.92,0-23.83-12.75a3.84,3.84,0,0,0-.56-1.39q-.55-1-1.11-2.31a25.44,25.44,0,0,1-1.47-3.14l-27.54,9.79,2.59,7q11.08,29.94,51.92,29.94A82,82,0,0,0,796,210.74Z"/><polygon class="cls-1" points="707.18 79.74 597.96 79.74 606.55 107.08 644.52 107.08 644.52 210.93 674.45 210.93 674.45 107.08 707.18 107.08 707.18 79.74"/><polygon class="cls-1" points="525.55 210.93 529.42 199.28 533.54 186.72 533.59 186.72 541.69 162.33 541.67 162.33 545.54 150.74 552.6 129.47 552.62 129.47 556.64 117.43 571.42 162.33 551.33 162.33 543.23 186.72 579.37 186.72 587.31 210.93 620.39 210.93 571.24 79.74 543.15 79.74 493.82 210.93 525.55 210.93"/><polygon class="cls-1" points="516.43 79.74 403.32 79.74 403.32 107.08 439.9 107.08 439.9 210.93 469.83 210.93 469.83 107.08 507.43 107.08 516.43 79.74"/><path class="cls-1" d="M339,213.7a82,82,0,0,0,22.91-3,50.81,50.81,0,0,0,17.27-8.5,37.42,37.42,0,0,0,10.9-13.4,39.57,39.57,0,0,0,3.79-17.46q0-11.44-3.88-18.84a31.56,31.56,0,0,0-10.53-11.83,49.39,49.39,0,0,0-15.34-6.65,138.41,138.41,0,0,0-18.1-3.33q-3.33-.36-6-.74c-1.79-.24-3.42-.49-4.9-.74a36.32,36.32,0,0,1-4.15-.92c-1.3-.37-2.68-.8-4.16-1.29q-8.5-3-8.5-10,0-6.65,5.08-9.7t16.72-3q15.71,0,21.81,12.2l2.4,4.8,27.72-12-2.41-5.17q-6.46-13.86-18.1-20.51T340.14,77A75.22,75.22,0,0,0,317.79,80a49.47,49.47,0,0,0-16.54,8.5,36.16,36.16,0,0,0-10.26,13,39.52,39.52,0,0,0-3.51,16.81q.74,12.39,5,19.77a31.65,31.65,0,0,0,11.09,11.55,47.77,47.77,0,0,0,15.89,5.92q9,1.75,19.22,3,12.19,1.31,18.57,4.16t6.37,9.15q0,14.59-24.57,14.6-17.93,0-23.84-12.75a3.84,3.84,0,0,0-.56-1.39c-.36-.68-.73-1.45-1.1-2.31a24,24,0,0,1-1.48-3.14l-27.53,9.79,2.58,7Q298.21,213.7,339,213.7Z"/><path class="cls-2" d="M185.41,0,88.9,290.69H38.33L134.83,0Zm2.72,68.81L134.36,230.76h50.58L238.7,68.83ZM100,28H49.41L0,176.8H50.58Z"/></svg>